<?xml version="1.0" standalone="no"?>
<!DOCTYPE svg PUBLIC "-//W3C//DTD SVG 20010904//EN"
 "http://www.w3.org/TR/2001/REC-SVG-20010904/DTD/svg10.dtd">
<svg version="1.0" xmlns="http://www.w3.org/2000/svg"
 width="256.000000pt" height="256.000000pt" viewBox="0 0 256.000000 256.000000"
 preserveAspectRatio="xMidYMid meet">
<metadata>
Created by potrace 1.14, written by Peter Selinger 2001-2017
</metadata>
<g transform="translate(0.000000,256.000000) scale(0.100000,-0.100000)"
fill="#000000" stroke="none">
<path d="M329 2556 c-2 -3 -17 -7 -33 -10 -109 -20 -232 -137 -275 -261 -20
-59 -20 -79 -20 -1010 l0 -950 27 -69 c36 -92 111 -171 207 -217 l70 -34 945
-3 c611 -2 962 1 992 8 122 26 225 110 281 227 l32 68 3 955 c2 1058 5 1009
-62 1115 -43 66 -96 111 -176 149 l-65 31 -961 3 c-528 1 -963 0 -965 -2z"/>
</g>
</svg>
